<mxfile host="app.diagrams.net" agent="Mozilla/5.0 (Windows NT 10.0; Win64; x64; rv:128.0) Gecko/20100101 Firefox/128.0" version="26.2.8">
  <diagram name="Seite-1" id="9LlcsvJfI-hnIL3umJ3_">
    <mxGraphModel dx="944" dy="495" grid="1" gridSize="10" guides="1" tooltips="1" connect="1" arrows="1" fold="1" page="1" pageScale="1" pageWidth="827" pageHeight="1169" math="1" shadow="0">
      <root>
        <mxCell id="0" />
        <mxCell id="1" parent="0" />
        <mxCell id="RpNyfDhXx-GSZ5eg2qi1-14" value="&lt;div&gt;Controller&lt;/div&gt;&lt;div&gt;&lt;font style=&quot;color: rgb(128, 128, 128); font-size: 10px;&quot;&gt;nominal&amp;nbsp;± σ&lt;/font&gt;&lt;/div&gt;" style="rounded=1;whiteSpace=wrap;html=1;" parent="1" vertex="1">
          <mxGeometry x="100" y="130" width="100" height="40" as="geometry" />
        </mxCell>
        <mxCell id="RpNyfDhXx-GSZ5eg2qi1-16" value="&lt;div&gt;Plant (Simulator)&lt;br&gt;&lt;/div&gt;&lt;div&gt;&lt;font style=&quot;font-size: 10px;&quot;&gt;&lt;span style=&quot;color: rgb(128, 128, 128);&quot;&gt;&lt;font&gt;nominal + σ&lt;/font&gt;&lt;/span&gt;&lt;/font&gt;&lt;/div&gt;" style="rounded=1;whiteSpace=wrap;html=1;" parent="1" vertex="1">
          <mxGeometry x="260" y="130" width="100" height="40" as="geometry" />
        </mxCell>
        <mxCell id="RpNyfDhXx-GSZ5eg2qi1-18" value="&lt;div&gt;Estimator&lt;/div&gt;&lt;div&gt;&lt;span style=&quot;color: rgb(128, 128, 128);&quot;&gt;&lt;font style=&quot;font-size: 10px;&quot;&gt;nominal + σ&lt;/font&gt;&lt;/span&gt;&lt;/div&gt;" style="rounded=1;whiteSpace=wrap;html=1;" parent="1" vertex="1">
          <mxGeometry x="260" y="190" width="100" height="40" as="geometry" />
        </mxCell>
        <mxCell id="RpNyfDhXx-GSZ5eg2qi1-19" value="$$u$$" style="text;html=1;align=center;verticalAlign=middle;resizable=0;points=[];autosize=1;strokeColor=none;fillColor=none;" parent="1" vertex="1">
          <mxGeometry x="182.53" y="120" width="60" height="30" as="geometry" />
        </mxCell>
        <mxCell id="RpNyfDhXx-GSZ5eg2qi1-20" value="$$x$$" style="text;html=1;align=center;verticalAlign=middle;resizable=0;points=[];autosize=1;strokeColor=none;fillColor=none;" parent="1" vertex="1">
          <mxGeometry x="150" y="180" width="60" height="30" as="geometry" />
        </mxCell>
        <mxCell id="RpNyfDhXx-GSZ5eg2qi1-23" value="&lt;div&gt;Simulator 2&lt;br&gt;&lt;/div&gt;&lt;div&gt;&lt;font style=&quot;font-size: 10px;&quot;&gt;&lt;span style=&quot;color: rgb(128, 128, 128);&quot;&gt;nominal&lt;/span&gt;&lt;/font&gt;&lt;/div&gt;" style="rounded=1;whiteSpace=wrap;html=1;dashed=1;" parent="1" vertex="1">
          <mxGeometry x="260" y="70" width="100" height="40" as="geometry" />
        </mxCell>
        <mxCell id="RpNyfDhXx-GSZ5eg2qi1-27" value="$$\hat y$$" style="text;html=1;align=center;verticalAlign=middle;resizable=0;points=[];autosize=1;strokeColor=none;fillColor=none;" parent="1" vertex="1">
          <mxGeometry x="345" y="60" width="80" height="30" as="geometry" />
        </mxCell>
        <mxCell id="RpNyfDhXx-GSZ5eg2qi1-32" value="$$y$$" style="text;html=1;align=center;verticalAlign=middle;resizable=0;points=[];autosize=1;strokeColor=none;fillColor=none;" parent="1" vertex="1">
          <mxGeometry x="360" y="120" width="50" height="30" as="geometry" />
        </mxCell>
        <mxCell id="sK82ltk8Y0pGCxcrycxw-3" value="" style="endArrow=classic;startArrow=none;html=1;rounded=0;startFill=0;exitX=1;exitY=0.5;exitDx=0;exitDy=0;" parent="1" source="RpNyfDhXx-GSZ5eg2qi1-16" edge="1">
          <mxGeometry width="50" height="50" relative="1" as="geometry">
            <mxPoint x="380" y="200" as="sourcePoint" />
            <mxPoint x="420" y="150" as="targetPoint" />
          </mxGeometry>
        </mxCell>
        <mxCell id="sK82ltk8Y0pGCxcrycxw-4" value="" style="endArrow=classic;html=1;rounded=0;exitX=1;exitY=0.5;exitDx=0;exitDy=0;dashed=1;edgeStyle=elbowEdgeStyle;" parent="1" source="RpNyfDhXx-GSZ5eg2qi1-23" edge="1">
          <mxGeometry width="50" height="50" relative="1" as="geometry">
            <mxPoint x="380" y="110" as="sourcePoint" />
            <mxPoint x="420" y="90" as="targetPoint" />
          </mxGeometry>
        </mxCell>
        <mxCell id="sK82ltk8Y0pGCxcrycxw-5" value="" style="endArrow=classic;html=1;rounded=0;entryX=0.5;entryY=1;entryDx=0;entryDy=0;exitX=0;exitY=0.5;exitDx=0;exitDy=0;edgeStyle=elbowEdgeStyle;" parent="1" source="RpNyfDhXx-GSZ5eg2qi1-18" target="RpNyfDhXx-GSZ5eg2qi1-14" edge="1">
          <mxGeometry width="50" height="50" relative="1" as="geometry">
            <mxPoint x="250" y="215" as="sourcePoint" />
            <mxPoint x="260" y="230" as="targetPoint" />
            <Array as="points">
              <mxPoint x="150" y="190" />
            </Array>
          </mxGeometry>
        </mxCell>
        <mxCell id="sK82ltk8Y0pGCxcrycxw-7" value="" style="endArrow=classic;html=1;rounded=0;entryX=0;entryY=0.5;entryDx=0;entryDy=0;startArrow=oval;startFill=1;dashed=1;edgeStyle=elbowEdgeStyle;elbow=vertical;" parent="1" target="RpNyfDhXx-GSZ5eg2qi1-23" edge="1">
          <mxGeometry width="50" height="50" relative="1" as="geometry">
            <mxPoint x="230" y="150" as="sourcePoint" />
            <mxPoint x="260" y="150" as="targetPoint" />
            <Array as="points">
              <mxPoint x="240" y="90" />
            </Array>
          </mxGeometry>
        </mxCell>
        <mxCell id="sK82ltk8Y0pGCxcrycxw-8" value="" style="endArrow=classic;html=1;rounded=0;startArrow=oval;startFill=1;edgeStyle=elbowEdgeStyle;" parent="1" edge="1">
          <mxGeometry width="50" height="50" relative="1" as="geometry">
            <mxPoint x="400" y="150" as="sourcePoint" />
            <mxPoint x="360" y="210" as="targetPoint" />
            <Array as="points">
              <mxPoint x="400" y="180" />
            </Array>
          </mxGeometry>
        </mxCell>
        <mxCell id="sK82ltk8Y0pGCxcrycxw-9" value="" style="endArrow=classic;html=1;rounded=0;startArrow=oval;startFill=1;" parent="1" edge="1">
          <mxGeometry width="50" height="50" relative="1" as="geometry">
            <mxPoint x="230" y="150" as="sourcePoint" />
            <mxPoint x="260" y="200" as="targetPoint" />
            <Array as="points">
              <mxPoint x="230" y="200" />
            </Array>
          </mxGeometry>
        </mxCell>
        <mxCell id="sK82ltk8Y0pGCxcrycxw-11" value="" style="endArrow=classic;html=1;rounded=0;entryX=0;entryY=0.5;entryDx=0;entryDy=0;exitX=1;exitY=0.5;exitDx=0;exitDy=0;" parent="1" edge="1">
          <mxGeometry width="50" height="50" relative="1" as="geometry">
            <mxPoint x="199.99999999999994" y="149.8599999999999" as="sourcePoint" />
            <mxPoint x="260" y="149.8599999999999" as="targetPoint" />
            <Array as="points">
              <mxPoint x="240" y="149.86" />
            </Array>
          </mxGeometry>
        </mxCell>
        <mxCell id="3KjaKUkOZBo5TyUVCAUN-122" style="edgeStyle=orthogonalEdgeStyle;rounded=0;orthogonalLoop=1;jettySize=auto;html=1;entryX=0.5;entryY=1;entryDx=0;entryDy=0;exitX=0;exitY=0.5;exitDx=0;exitDy=0;" parent="1" source="3KjaKUkOZBo5TyUVCAUN-3" target="3KjaKUkOZBo5TyUVCAUN-1" edge="1">
          <mxGeometry relative="1" as="geometry" />
        </mxCell>
        <mxCell id="3KjaKUkOZBo5TyUVCAUN-3" value="&lt;div&gt;Estimator&lt;/div&gt;&lt;div&gt;&lt;span style=&quot;color: rgb(128, 128, 128);&quot;&gt;&lt;font style=&quot;font-size: 10px;&quot;&gt;nominal + σ&lt;/font&gt;&lt;/span&gt;&lt;/div&gt;" style="rounded=1;whiteSpace=wrap;html=1;" parent="1" vertex="1">
          <mxGeometry x="260" y="498" width="120" height="42" as="geometry" />
        </mxCell>
        <mxCell id="3KjaKUkOZBo5TyUVCAUN-4" value="$$u$$" style="text;html=1;align=center;verticalAlign=middle;resizable=0;points=[];autosize=1;strokeColor=none;fillColor=none;" parent="1" vertex="1">
          <mxGeometry x="186.53" y="400" width="60" height="30" as="geometry" />
        </mxCell>
        <mxCell id="3KjaKUkOZBo5TyUVCAUN-120" value="" style="endArrow=classic;html=1;rounded=0;startArrow=oval;startFill=1;entryX=1;entryY=0.5;entryDx=0;entryDy=0;edgeStyle=elbowEdgeStyle;" parent="1" target="3KjaKUkOZBo5TyUVCAUN-3" edge="1">
          <mxGeometry width="50" height="50" relative="1" as="geometry">
            <mxPoint x="400" y="430" as="sourcePoint" />
            <mxPoint x="60" y="400" as="targetPoint" />
            <Array as="points">
              <mxPoint x="400" y="480" />
            </Array>
          </mxGeometry>
        </mxCell>
        <mxCell id="3KjaKUkOZBo5TyUVCAUN-121" value="" style="endArrow=classic;html=1;rounded=0;startArrow=oval;startFill=1;entryX=0;entryY=0.25;entryDx=0;entryDy=0;edgeStyle=elbowEdgeStyle;" parent="1" target="3KjaKUkOZBo5TyUVCAUN-3" edge="1">
          <mxGeometry width="50" height="50" relative="1" as="geometry">
            <mxPoint x="230" y="430" as="sourcePoint" />
            <mxPoint x="409" y="575" as="targetPoint" />
            <Array as="points">
              <mxPoint x="230" y="490" />
            </Array>
          </mxGeometry>
        </mxCell>
        <mxCell id="3KjaKUkOZBo5TyUVCAUN-126" style="edgeStyle=orthogonalEdgeStyle;rounded=0;orthogonalLoop=1;jettySize=auto;html=1;dashed=1;" parent="1" edge="1">
          <mxGeometry relative="1" as="geometry">
            <mxPoint x="430" y="330" as="targetPoint" />
            <Array as="points">
              <mxPoint x="410" y="330" />
            </Array>
            <mxPoint x="380" y="330.02857142857135" as="sourcePoint" />
          </mxGeometry>
        </mxCell>
        <mxCell id="3KjaKUkOZBo5TyUVCAUN-124" value="$$x$$" style="text;html=1;align=center;verticalAlign=middle;resizable=0;points=[];autosize=1;strokeColor=none;fillColor=none;" parent="1" vertex="1">
          <mxGeometry x="150" y="490" width="60" height="30" as="geometry" />
        </mxCell>
        <mxCell id="3KjaKUkOZBo5TyUVCAUN-125" value="$$y$$" style="text;html=1;align=center;verticalAlign=middle;resizable=0;points=[];autosize=1;strokeColor=none;fillColor=none;" parent="1" vertex="1">
          <mxGeometry x="390" y="400" width="50" height="30" as="geometry" />
        </mxCell>
        <mxCell id="3KjaKUkOZBo5TyUVCAUN-127" value="" style="endArrow=classic;html=1;rounded=0;startArrow=oval;startFill=1;entryX=0;entryY=0.5;entryDx=0;entryDy=0;dashed=1;" parent="1" edge="1">
          <mxGeometry width="50" height="50" relative="1" as="geometry">
            <mxPoint x="230" y="430" as="sourcePoint" />
            <mxPoint x="260" y="330" as="targetPoint" />
            <Array as="points">
              <mxPoint x="230" y="330" />
            </Array>
          </mxGeometry>
        </mxCell>
        <mxCell id="3KjaKUkOZBo5TyUVCAUN-128" value="$$\hat y$$" style="text;html=1;align=center;verticalAlign=middle;resizable=0;points=[];autosize=1;strokeColor=none;fillColor=none;" parent="1" vertex="1">
          <mxGeometry x="374" y="300" width="80" height="30" as="geometry" />
        </mxCell>
        <mxCell id="3KjaKUkOZBo5TyUVCAUN-133" value="" style="group" parent="1" vertex="1" connectable="0">
          <mxGeometry x="139" y="219" width="294" height="57" as="geometry" />
        </mxCell>
        <mxCell id="0Zd_r2tviZg1apB94iAC-8" value="" style="group;fontSize=11;" parent="3KjaKUkOZBo5TyUVCAUN-133" vertex="1" connectable="0">
          <mxGeometry x="98" y="12" width="196" height="45" as="geometry" />
        </mxCell>
        <mxCell id="0Zd_r2tviZg1apB94iAC-4" value="\(\hat y-\) output of Simulator 2" style="text;html=1;align=center;verticalAlign=middle;resizable=0;points=[];autosize=1;strokeColor=none;fillColor=none;fontSize=11;" parent="0Zd_r2tviZg1apB94iAC-8" vertex="1">
          <mxGeometry x="16" width="170" height="30" as="geometry" />
        </mxCell>
        <mxCell id="0Zd_r2tviZg1apB94iAC-5" value="\(\sigma-\) standard deviation" style="text;html=1;align=center;verticalAlign=middle;resizable=0;points=[];autosize=1;strokeColor=none;fillColor=none;fontSize=11;" parent="0Zd_r2tviZg1apB94iAC-8" vertex="1">
          <mxGeometry x="15" y="15" width="160" height="30" as="geometry" />
        </mxCell>
        <mxCell id="0Zd_r2tviZg1apB94iAC-1" value="\(u-\) control variable" style="text;html=1;align=center;verticalAlign=middle;resizable=0;points=[];autosize=1;strokeColor=none;fillColor=none;fontSize=11;" parent="3KjaKUkOZBo5TyUVCAUN-133" vertex="1">
          <mxGeometry width="120" height="30" as="geometry" />
        </mxCell>
        <mxCell id="0Zd_r2tviZg1apB94iAC-2" value="\(x-\) system state" style="text;html=1;align=center;verticalAlign=middle;resizable=0;points=[];autosize=1;strokeColor=none;fillColor=none;fontSize=11;" parent="3KjaKUkOZBo5TyUVCAUN-133" vertex="1">
          <mxGeometry y="14" width="110" height="30" as="geometry" />
        </mxCell>
        <mxCell id="0Zd_r2tviZg1apB94iAC-3" value="\(y-\) system output" style="text;html=1;align=center;verticalAlign=middle;resizable=0;points=[];autosize=1;strokeColor=none;fillColor=none;fontSize=11;" parent="3KjaKUkOZBo5TyUVCAUN-133" vertex="1">
          <mxGeometry x="3" y="27" width="110" height="30" as="geometry" />
        </mxCell>
        <mxCell id="3KjaKUkOZBo5TyUVCAUN-187" style="edgeStyle=orthogonalEdgeStyle;rounded=0;orthogonalLoop=1;jettySize=auto;html=1;entryX=0;entryY=0.5;entryDx=0;entryDy=0;" parent="1" edge="1">
          <mxGeometry relative="1" as="geometry">
            <mxPoint x="200" y="430" as="sourcePoint" />
            <mxPoint x="259" y="430" as="targetPoint" />
          </mxGeometry>
        </mxCell>
        <mxCell id="3KjaKUkOZBo5TyUVCAUN-1" value="&lt;div&gt;&lt;font style=&quot;font-size: 13px;&quot;&gt;Controller&lt;/font&gt;&lt;/div&gt;&lt;div&gt;&lt;font style=&quot;font-size: 10px; color: rgb(0, 0, 0);&quot;&gt;nominal&amp;nbsp;± σ&lt;/font&gt;&lt;/div&gt;" style="rounded=1;whiteSpace=wrap;html=1;verticalAlign=top;" parent="1" vertex="1">
          <mxGeometry x="80" y="370" width="120" height="110" as="geometry" />
        </mxCell>
        <mxCell id="3KjaKUkOZBo5TyUVCAUN-188" style="edgeStyle=orthogonalEdgeStyle;rounded=0;orthogonalLoop=1;jettySize=auto;html=1;" parent="1" edge="1">
          <mxGeometry relative="1" as="geometry">
            <mxPoint x="430" y="430" as="targetPoint" />
            <mxPoint x="380" y="430" as="sourcePoint" />
          </mxGeometry>
        </mxCell>
        <mxCell id="3KjaKUkOZBo5TyUVCAUN-102" value="&lt;div&gt;&lt;font style=&quot;font-size: 13px;&quot;&gt;Plant&amp;nbsp; &lt;span style=&quot;color: rgb(128, 128, 128);&quot;&gt;(&lt;/span&gt;&lt;span style=&quot;color: rgb(128, 128, 128);&quot;&gt;&lt;span style=&quot;color: rgb(128, 128, 128);&quot;&gt;Simulator)&lt;/span&gt;&lt;/span&gt;&lt;/font&gt;&lt;br&gt;&lt;/div&gt;&lt;div&gt;&lt;font style=&quot;font-size: 10px; color: rgb(128, 128, 128);&quot;&gt;&lt;span style=&quot;color: rgb(128, 128, 128);&quot;&gt;&lt;font&gt;nominal + σ&lt;/font&gt;&lt;/span&gt;&lt;/font&gt;&lt;/div&gt;" style="rounded=1;whiteSpace=wrap;html=1;verticalAlign=top;" parent="1" vertex="1">
          <mxGeometry x="260" y="370" width="120" height="110" as="geometry" />
        </mxCell>
        <mxCell id="3KjaKUkOZBo5TyUVCAUN-185" value="" style="group" parent="1" vertex="1" connectable="0">
          <mxGeometry x="86.53" y="413" width="100" height="60" as="geometry" />
        </mxCell>
        <mxCell id="3KjaKUkOZBo5TyUVCAUN-160" value="" style="endArrow=oval;html=1;rounded=0;endFill=1;startArrow=oval;startFill=1;strokeColor=#000000;" parent="3KjaKUkOZBo5TyUVCAUN-185" edge="1">
          <mxGeometry width="50" height="50" relative="1" as="geometry">
            <mxPoint y="30" as="sourcePoint" />
            <mxPoint x="30" y="50" as="targetPoint" />
          </mxGeometry>
        </mxCell>
        <mxCell id="3KjaKUkOZBo5TyUVCAUN-161" value="" style="endArrow=oval;html=1;rounded=0;endFill=1;startArrow=oval;startFill=1;strokeColor=#000000;" parent="3KjaKUkOZBo5TyUVCAUN-185" edge="1">
          <mxGeometry width="50" height="50" relative="1" as="geometry">
            <mxPoint y="30" as="sourcePoint" />
            <mxPoint x="30" y="10" as="targetPoint" />
          </mxGeometry>
        </mxCell>
        <mxCell id="3KjaKUkOZBo5TyUVCAUN-162" value="" style="endArrow=oval;html=1;rounded=0;endFill=1;startArrow=oval;startFill=1;strokeColor=#000000;" parent="3KjaKUkOZBo5TyUVCAUN-185" edge="1">
          <mxGeometry width="50" height="50" relative="1" as="geometry">
            <mxPoint x="30" y="10" as="sourcePoint" />
            <mxPoint x="60" as="targetPoint" />
          </mxGeometry>
        </mxCell>
        <mxCell id="3KjaKUkOZBo5TyUVCAUN-163" value="" style="endArrow=oval;html=1;rounded=0;endFill=1;startArrow=oval;startFill=1;strokeColor=#000000;" parent="3KjaKUkOZBo5TyUVCAUN-185" edge="1">
          <mxGeometry width="50" height="50" relative="1" as="geometry">
            <mxPoint x="30" y="50" as="sourcePoint" />
            <mxPoint x="60" y="60" as="targetPoint" />
          </mxGeometry>
        </mxCell>
        <mxCell id="3KjaKUkOZBo5TyUVCAUN-164" value="" style="endArrow=oval;html=1;rounded=0;endFill=1;startArrow=oval;startFill=1;strokeColor=#000000;" parent="3KjaKUkOZBo5TyUVCAUN-185" edge="1">
          <mxGeometry width="50" height="50" relative="1" as="geometry">
            <mxPoint x="30" y="50" as="sourcePoint" />
            <mxPoint x="60" y="40" as="targetPoint" />
          </mxGeometry>
        </mxCell>
        <mxCell id="3KjaKUkOZBo5TyUVCAUN-165" value="" style="endArrow=oval;html=1;rounded=0;endFill=1;startArrow=oval;startFill=1;strokeColor=#000000;" parent="3KjaKUkOZBo5TyUVCAUN-185" edge="1">
          <mxGeometry width="50" height="50" relative="1" as="geometry">
            <mxPoint x="30" y="10" as="sourcePoint" />
            <mxPoint x="60" y="20" as="targetPoint" />
          </mxGeometry>
        </mxCell>
        <mxCell id="3KjaKUkOZBo5TyUVCAUN-166" value="" style="endArrow=oval;html=1;rounded=0;endFill=1;startArrow=oval;startFill=1;dashed=1;strokeColor=#000000;" parent="3KjaKUkOZBo5TyUVCAUN-185" edge="1">
          <mxGeometry width="50" height="50" relative="1" as="geometry">
            <mxPoint x="60" as="sourcePoint" />
            <mxPoint x="100" as="targetPoint" />
          </mxGeometry>
        </mxCell>
        <mxCell id="3KjaKUkOZBo5TyUVCAUN-167" value="" style="endArrow=oval;html=1;rounded=0;endFill=1;startArrow=oval;startFill=1;dashed=1;strokeColor=#000000;" parent="3KjaKUkOZBo5TyUVCAUN-185" edge="1">
          <mxGeometry width="50" height="50" relative="1" as="geometry">
            <mxPoint x="60" y="20" as="sourcePoint" />
            <mxPoint x="100" y="20" as="targetPoint" />
          </mxGeometry>
        </mxCell>
        <mxCell id="3KjaKUkOZBo5TyUVCAUN-168" value="" style="endArrow=oval;html=1;rounded=0;endFill=1;startArrow=oval;startFill=1;dashed=1;strokeColor=#000000;" parent="3KjaKUkOZBo5TyUVCAUN-185" edge="1">
          <mxGeometry width="50" height="50" relative="1" as="geometry">
            <mxPoint x="60" y="40" as="sourcePoint" />
            <mxPoint x="100" y="40" as="targetPoint" />
          </mxGeometry>
        </mxCell>
        <mxCell id="3KjaKUkOZBo5TyUVCAUN-169" value="" style="endArrow=oval;html=1;rounded=0;endFill=1;startArrow=oval;startFill=1;dashed=1;strokeColor=#000000;" parent="3KjaKUkOZBo5TyUVCAUN-185" edge="1">
          <mxGeometry width="50" height="50" relative="1" as="geometry">
            <mxPoint x="60" y="60" as="sourcePoint" />
            <mxPoint x="100" y="60" as="targetPoint" />
          </mxGeometry>
        </mxCell>
        <mxCell id="3KjaKUkOZBo5TyUVCAUN-189" value="" style="group" parent="1" vertex="1" connectable="0">
          <mxGeometry x="116" y="528" width="280" height="57" as="geometry" />
        </mxCell>
        <mxCell id="3KjaKUkOZBo5TyUVCAUN-138" value="\(u-\) control variable" style="text;html=1;align=center;verticalAlign=middle;resizable=0;points=[];autosize=1;strokeColor=none;fillColor=none;fontSize=11;" parent="3KjaKUkOZBo5TyUVCAUN-189" vertex="1">
          <mxGeometry width="120" height="30" as="geometry" />
        </mxCell>
        <mxCell id="3KjaKUkOZBo5TyUVCAUN-139" value="\(x-\) system state" style="text;html=1;align=center;verticalAlign=middle;resizable=0;points=[];autosize=1;strokeColor=none;fillColor=none;fontSize=11;" parent="3KjaKUkOZBo5TyUVCAUN-189" vertex="1">
          <mxGeometry y="14" width="110" height="30" as="geometry" />
        </mxCell>
        <mxCell id="3KjaKUkOZBo5TyUVCAUN-140" value="\(y-\) system output" style="text;html=1;align=center;verticalAlign=middle;resizable=0;points=[];autosize=1;strokeColor=none;fillColor=none;fontSize=11;" parent="3KjaKUkOZBo5TyUVCAUN-189" vertex="1">
          <mxGeometry x="3" y="27" width="110" height="30" as="geometry" />
        </mxCell>
        <mxCell id="3KjaKUkOZBo5TyUVCAUN-136" value="\(\hat y-\) output of Simulator 2" style="text;html=1;align=center;verticalAlign=middle;resizable=0;points=[];autosize=1;strokeColor=none;fillColor=none;fontSize=11;" parent="3KjaKUkOZBo5TyUVCAUN-189" vertex="1">
          <mxGeometry x="110" y="27" width="170" height="30" as="geometry" />
        </mxCell>
        <mxCell id="3KjaKUkOZBo5TyUVCAUN-137" value="\(\sigma-\) standard deviation" style="text;html=1;align=center;verticalAlign=middle;resizable=0;points=[];autosize=1;strokeColor=none;fillColor=none;fontSize=11;" parent="3KjaKUkOZBo5TyUVCAUN-189" vertex="1">
          <mxGeometry x="109" y="13" width="160" height="30" as="geometry" />
        </mxCell>
        <mxCell id="HXkYS8oKJDvhofdAoh5R-28" value="" style="group" vertex="1" connectable="0" parent="1">
          <mxGeometry x="520" y="370" width="100" height="60" as="geometry" />
        </mxCell>
        <mxCell id="HXkYS8oKJDvhofdAoh5R-29" value="" style="endArrow=oval;html=1;rounded=0;endFill=1;startArrow=oval;startFill=1;strokeColor=#B3B3B3;" edge="1" parent="HXkYS8oKJDvhofdAoh5R-28">
          <mxGeometry width="50" height="50" relative="1" as="geometry">
            <mxPoint y="30" as="sourcePoint" />
            <mxPoint x="30" y="50" as="targetPoint" />
          </mxGeometry>
        </mxCell>
        <mxCell id="HXkYS8oKJDvhofdAoh5R-30" value="" style="endArrow=oval;html=1;rounded=0;endFill=1;startArrow=oval;startFill=1;strokeColor=#B3B3B3;" edge="1" parent="HXkYS8oKJDvhofdAoh5R-28">
          <mxGeometry width="50" height="50" relative="1" as="geometry">
            <mxPoint y="30" as="sourcePoint" />
            <mxPoint x="30" y="10" as="targetPoint" />
          </mxGeometry>
        </mxCell>
        <mxCell id="HXkYS8oKJDvhofdAoh5R-31" value="" style="endArrow=oval;html=1;rounded=0;endFill=1;startArrow=oval;startFill=1;strokeColor=#B3B3B3;" edge="1" parent="HXkYS8oKJDvhofdAoh5R-28">
          <mxGeometry width="50" height="50" relative="1" as="geometry">
            <mxPoint x="30" y="10" as="sourcePoint" />
            <mxPoint x="60" as="targetPoint" />
          </mxGeometry>
        </mxCell>
        <mxCell id="HXkYS8oKJDvhofdAoh5R-32" value="" style="endArrow=oval;html=1;rounded=0;endFill=1;startArrow=oval;startFill=1;strokeColor=#B3B3B3;" edge="1" parent="HXkYS8oKJDvhofdAoh5R-28">
          <mxGeometry width="50" height="50" relative="1" as="geometry">
            <mxPoint x="30" y="50" as="sourcePoint" />
            <mxPoint x="60" y="60" as="targetPoint" />
          </mxGeometry>
        </mxCell>
        <mxCell id="HXkYS8oKJDvhofdAoh5R-33" value="" style="endArrow=oval;html=1;rounded=0;endFill=1;startArrow=oval;startFill=1;strokeColor=#B3B3B3;" edge="1" parent="HXkYS8oKJDvhofdAoh5R-28">
          <mxGeometry width="50" height="50" relative="1" as="geometry">
            <mxPoint x="30" y="50" as="sourcePoint" />
            <mxPoint x="60" y="40" as="targetPoint" />
          </mxGeometry>
        </mxCell>
        <mxCell id="HXkYS8oKJDvhofdAoh5R-34" value="" style="endArrow=oval;html=1;rounded=0;endFill=1;startArrow=oval;startFill=1;strokeColor=#B3B3B3;" edge="1" parent="HXkYS8oKJDvhofdAoh5R-28">
          <mxGeometry width="50" height="50" relative="1" as="geometry">
            <mxPoint x="30" y="10" as="sourcePoint" />
            <mxPoint x="60" y="20" as="targetPoint" />
          </mxGeometry>
        </mxCell>
        <mxCell id="HXkYS8oKJDvhofdAoh5R-35" value="" style="endArrow=oval;html=1;rounded=0;endFill=1;startArrow=oval;startFill=1;dashed=1;strokeColor=#B3B3B3;" edge="1" parent="HXkYS8oKJDvhofdAoh5R-28">
          <mxGeometry width="50" height="50" relative="1" as="geometry">
            <mxPoint x="60" as="sourcePoint" />
            <mxPoint x="100" as="targetPoint" />
          </mxGeometry>
        </mxCell>
        <mxCell id="HXkYS8oKJDvhofdAoh5R-36" value="" style="endArrow=oval;html=1;rounded=0;endFill=1;startArrow=oval;startFill=1;dashed=1;strokeColor=#B3B3B3;" edge="1" parent="HXkYS8oKJDvhofdAoh5R-28">
          <mxGeometry width="50" height="50" relative="1" as="geometry">
            <mxPoint x="60" y="20" as="sourcePoint" />
            <mxPoint x="100" y="20" as="targetPoint" />
          </mxGeometry>
        </mxCell>
        <mxCell id="HXkYS8oKJDvhofdAoh5R-37" value="" style="endArrow=oval;html=1;rounded=0;endFill=1;startArrow=oval;startFill=1;dashed=1;strokeColor=#B3B3B3;" edge="1" parent="HXkYS8oKJDvhofdAoh5R-28">
          <mxGeometry width="50" height="50" relative="1" as="geometry">
            <mxPoint x="60" y="40" as="sourcePoint" />
            <mxPoint x="100" y="40" as="targetPoint" />
          </mxGeometry>
        </mxCell>
        <mxCell id="HXkYS8oKJDvhofdAoh5R-38" value="" style="endArrow=oval;html=1;rounded=0;endFill=1;startArrow=oval;startFill=1;dashed=1;strokeColor=#B3B3B3;" edge="1" parent="HXkYS8oKJDvhofdAoh5R-28">
          <mxGeometry width="50" height="50" relative="1" as="geometry">
            <mxPoint x="60" y="60" as="sourcePoint" />
            <mxPoint x="100" y="60" as="targetPoint" />
          </mxGeometry>
        </mxCell>
        <mxCell id="HXkYS8oKJDvhofdAoh5R-39" value="" style="group" vertex="1" connectable="0" parent="HXkYS8oKJDvhofdAoh5R-28">
          <mxGeometry width="100" height="30" as="geometry" />
        </mxCell>
        <mxCell id="HXkYS8oKJDvhofdAoh5R-40" value="" style="endArrow=oval;html=1;rounded=0;endFill=1;startArrow=oval;startFill=1;strokeColor=#000000;" edge="1" parent="HXkYS8oKJDvhofdAoh5R-39">
          <mxGeometry width="50" height="50" relative="1" as="geometry">
            <mxPoint y="30" as="sourcePoint" />
            <mxPoint x="30" y="10" as="targetPoint" />
          </mxGeometry>
        </mxCell>
        <mxCell id="HXkYS8oKJDvhofdAoh5R-41" value="" style="endArrow=oval;html=1;rounded=0;endFill=1;startArrow=oval;startFill=1;strokeColor=#000000;" edge="1" parent="HXkYS8oKJDvhofdAoh5R-39">
          <mxGeometry width="50" height="50" relative="1" as="geometry">
            <mxPoint x="30" y="10" as="sourcePoint" />
            <mxPoint x="60" as="targetPoint" />
          </mxGeometry>
        </mxCell>
        <mxCell id="HXkYS8oKJDvhofdAoh5R-42" value="" style="endArrow=oval;html=1;rounded=0;endFill=1;startArrow=oval;startFill=1;dashed=1;strokeColor=#000000;" edge="1" parent="HXkYS8oKJDvhofdAoh5R-39">
          <mxGeometry width="50" height="50" relative="1" as="geometry">
            <mxPoint x="60" as="sourcePoint" />
            <mxPoint x="100" as="targetPoint" />
          </mxGeometry>
        </mxCell>
        <mxCell id="HXkYS8oKJDvhofdAoh5R-62" value="" style="group" vertex="1" connectable="0" parent="1">
          <mxGeometry x="268" y="413" width="100" height="60" as="geometry" />
        </mxCell>
        <mxCell id="HXkYS8oKJDvhofdAoh5R-45" value="" style="endArrow=oval;html=1;rounded=0;endFill=1;startArrow=oval;startFill=1;strokeColor=light-dark(#D3D3D3,#535353);" edge="1" parent="HXkYS8oKJDvhofdAoh5R-62">
          <mxGeometry width="50" height="50" relative="1" as="geometry">
            <mxPoint y="30" as="sourcePoint" />
            <mxPoint x="30" y="50" as="targetPoint" />
          </mxGeometry>
        </mxCell>
        <mxCell id="HXkYS8oKJDvhofdAoh5R-46" value="" style="endArrow=oval;html=1;rounded=0;endFill=1;startArrow=oval;startFill=1;strokeColor=light-dark(#c0c0c0, #535353);" edge="1" parent="HXkYS8oKJDvhofdAoh5R-62">
          <mxGeometry width="50" height="50" relative="1" as="geometry">
            <mxPoint y="30" as="sourcePoint" />
            <mxPoint x="30" y="10" as="targetPoint" />
          </mxGeometry>
        </mxCell>
        <mxCell id="HXkYS8oKJDvhofdAoh5R-47" value="" style="endArrow=oval;html=1;rounded=0;endFill=1;startArrow=oval;startFill=1;strokeColor=light-dark(#c0c0c0, #535353);" edge="1" parent="HXkYS8oKJDvhofdAoh5R-62">
          <mxGeometry width="50" height="50" relative="1" as="geometry">
            <mxPoint x="30" y="10" as="sourcePoint" />
            <mxPoint x="60" as="targetPoint" />
          </mxGeometry>
        </mxCell>
        <mxCell id="HXkYS8oKJDvhofdAoh5R-48" value="" style="endArrow=oval;html=1;rounded=0;endFill=1;startArrow=oval;startFill=1;strokeColor=light-dark(#D3D3D3,#535353);" edge="1" parent="HXkYS8oKJDvhofdAoh5R-62">
          <mxGeometry width="50" height="50" relative="1" as="geometry">
            <mxPoint x="30" y="50" as="sourcePoint" />
            <mxPoint x="60" y="60" as="targetPoint" />
          </mxGeometry>
        </mxCell>
        <mxCell id="HXkYS8oKJDvhofdAoh5R-49" value="" style="endArrow=oval;html=1;rounded=0;endFill=1;startArrow=oval;startFill=1;strokeColor=light-dark(#D3D3D3,#535353);" edge="1" parent="HXkYS8oKJDvhofdAoh5R-62">
          <mxGeometry width="50" height="50" relative="1" as="geometry">
            <mxPoint x="30" y="50" as="sourcePoint" />
            <mxPoint x="60" y="40" as="targetPoint" />
          </mxGeometry>
        </mxCell>
        <mxCell id="HXkYS8oKJDvhofdAoh5R-50" value="" style="endArrow=oval;html=1;rounded=0;endFill=1;startArrow=oval;startFill=1;strokeColor=light-dark(#D3D3D3,#535353);" edge="1" parent="HXkYS8oKJDvhofdAoh5R-62">
          <mxGeometry width="50" height="50" relative="1" as="geometry">
            <mxPoint x="30" y="10" as="sourcePoint" />
            <mxPoint x="60" y="20" as="targetPoint" />
          </mxGeometry>
        </mxCell>
        <mxCell id="HXkYS8oKJDvhofdAoh5R-51" value="" style="endArrow=oval;html=1;rounded=0;endFill=1;startArrow=oval;startFill=1;dashed=1;strokeColor=light-dark(#c0c0c0, #535353);" edge="1" parent="HXkYS8oKJDvhofdAoh5R-62">
          <mxGeometry width="50" height="50" relative="1" as="geometry">
            <mxPoint x="60" as="sourcePoint" />
            <mxPoint x="100" as="targetPoint" />
          </mxGeometry>
        </mxCell>
        <mxCell id="HXkYS8oKJDvhofdAoh5R-52" value="" style="endArrow=oval;html=1;rounded=0;endFill=1;startArrow=oval;startFill=1;dashed=1;strokeColor=light-dark(#D3D3D3,#535353);" edge="1" parent="HXkYS8oKJDvhofdAoh5R-62">
          <mxGeometry width="50" height="50" relative="1" as="geometry">
            <mxPoint x="60" y="20" as="sourcePoint" />
            <mxPoint x="100" y="20" as="targetPoint" />
          </mxGeometry>
        </mxCell>
        <mxCell id="HXkYS8oKJDvhofdAoh5R-53" value="" style="endArrow=oval;html=1;rounded=0;endFill=1;startArrow=oval;startFill=1;dashed=1;strokeColor=light-dark(#D3D3D3,#535353);" edge="1" parent="HXkYS8oKJDvhofdAoh5R-62">
          <mxGeometry width="50" height="50" relative="1" as="geometry">
            <mxPoint x="60" y="40" as="sourcePoint" />
            <mxPoint x="100" y="40" as="targetPoint" />
          </mxGeometry>
        </mxCell>
        <mxCell id="HXkYS8oKJDvhofdAoh5R-54" value="" style="endArrow=oval;html=1;rounded=0;endFill=1;startArrow=oval;startFill=1;dashed=1;strokeColor=light-dark(#D3D3D3,#535353);" edge="1" parent="HXkYS8oKJDvhofdAoh5R-62">
          <mxGeometry width="50" height="50" relative="1" as="geometry">
            <mxPoint x="60" y="60" as="sourcePoint" />
            <mxPoint x="100" y="60" as="targetPoint" />
          </mxGeometry>
        </mxCell>
        <mxCell id="HXkYS8oKJDvhofdAoh5R-55" value="" style="curved=1;endArrow=oval;html=1;rounded=0;endFill=1;startArrow=oval;startFill=1;strokeColor=#000000;dashed=1;dashPattern=1 1;" edge="1" parent="HXkYS8oKJDvhofdAoh5R-62">
          <mxGeometry width="50" height="50" relative="1" as="geometry">
            <mxPoint y="30" as="sourcePoint" />
            <mxPoint x="30" y="17.810000000000002" as="targetPoint" />
            <Array as="points">
              <mxPoint x="20" y="20" />
            </Array>
          </mxGeometry>
        </mxCell>
        <mxCell id="HXkYS8oKJDvhofdAoh5R-56" value="" style="curved=1;endArrow=oval;html=1;rounded=0;endFill=1;startArrow=oval;startFill=1;strokeColor=#000000;dashed=1;dashPattern=1 1;" edge="1" parent="HXkYS8oKJDvhofdAoh5R-62">
          <mxGeometry width="50" height="50" relative="1" as="geometry">
            <mxPoint x="30" y="17.810000000000002" as="sourcePoint" />
            <mxPoint x="60" y="27.809999999999945" as="targetPoint" />
            <Array as="points">
              <mxPoint x="50" y="20" />
            </Array>
          </mxGeometry>
        </mxCell>
        <mxCell id="HXkYS8oKJDvhofdAoh5R-57" value="" style="curved=1;endArrow=oval;html=1;rounded=0;endFill=1;startArrow=oval;startFill=1;strokeColor=#000000;dashed=1;dashPattern=1 1;" edge="1" parent="HXkYS8oKJDvhofdAoh5R-62">
          <mxGeometry width="50" height="50" relative="1" as="geometry">
            <mxPoint x="60" y="27.809999999999945" as="sourcePoint" />
            <mxPoint x="100" y="10" as="targetPoint" />
            <Array as="points">
              <mxPoint x="60" y="27.809999999999945" />
              <mxPoint x="80" y="40" />
            </Array>
          </mxGeometry>
        </mxCell>
        <mxCell id="HXkYS8oKJDvhofdAoh5R-59" value="" style="endArrow=oval;html=1;rounded=0;endFill=1;startArrow=oval;startFill=1;strokeColor=#808080;" edge="1" parent="HXkYS8oKJDvhofdAoh5R-62">
          <mxGeometry width="50" height="50" relative="1" as="geometry">
            <mxPoint y="30" as="sourcePoint" />
            <mxPoint x="30" y="10" as="targetPoint" />
          </mxGeometry>
        </mxCell>
        <mxCell id="HXkYS8oKJDvhofdAoh5R-60" value="" style="endArrow=oval;html=1;rounded=0;endFill=1;startArrow=oval;startFill=1;strokeColor=#808080;" edge="1" parent="HXkYS8oKJDvhofdAoh5R-62">
          <mxGeometry width="50" height="50" relative="1" as="geometry">
            <mxPoint x="30" y="10" as="sourcePoint" />
            <mxPoint x="60" as="targetPoint" />
          </mxGeometry>
        </mxCell>
        <mxCell id="HXkYS8oKJDvhofdAoh5R-61" value="" style="endArrow=oval;html=1;rounded=0;endFill=1;startArrow=oval;startFill=1;strokeColor=#808080;" edge="1" parent="HXkYS8oKJDvhofdAoh5R-62">
          <mxGeometry width="50" height="50" relative="1" as="geometry">
            <mxPoint x="60" as="sourcePoint" />
            <mxPoint x="100" as="targetPoint" />
          </mxGeometry>
        </mxCell>
        <mxCell id="3KjaKUkOZBo5TyUVCAUN-145" value="" style="endArrow=oval;html=1;rounded=0;endFill=1;startArrow=oval;startFill=1;strokeColor=light-dark(#c0c0c0, #535353);" parent="1" edge="1">
          <mxGeometry width="50" height="50" relative="1" as="geometry">
            <mxPoint x="520" y="510" as="sourcePoint" />
            <mxPoint x="550" y="530" as="targetPoint" />
          </mxGeometry>
        </mxCell>
        <mxCell id="3KjaKUkOZBo5TyUVCAUN-146" value="" style="endArrow=oval;html=1;rounded=0;endFill=1;startArrow=oval;startFill=1;strokeColor=light-dark(#c0c0c0, #535353);" parent="1" edge="1">
          <mxGeometry width="50" height="50" relative="1" as="geometry">
            <mxPoint x="520" y="510" as="sourcePoint" />
            <mxPoint x="550" y="490" as="targetPoint" />
          </mxGeometry>
        </mxCell>
        <mxCell id="3KjaKUkOZBo5TyUVCAUN-147" value="" style="endArrow=oval;html=1;rounded=0;endFill=1;startArrow=oval;startFill=1;strokeColor=light-dark(#c0c0c0, #535353);" parent="1" edge="1">
          <mxGeometry width="50" height="50" relative="1" as="geometry">
            <mxPoint x="550" y="490" as="sourcePoint" />
            <mxPoint x="580" y="480" as="targetPoint" />
          </mxGeometry>
        </mxCell>
        <mxCell id="3KjaKUkOZBo5TyUVCAUN-148" value="" style="endArrow=oval;html=1;rounded=0;endFill=1;startArrow=oval;startFill=1;strokeColor=light-dark(#c0c0c0, #535353);" parent="1" edge="1">
          <mxGeometry width="50" height="50" relative="1" as="geometry">
            <mxPoint x="550" y="530" as="sourcePoint" />
            <mxPoint x="580" y="540" as="targetPoint" />
          </mxGeometry>
        </mxCell>
        <mxCell id="3KjaKUkOZBo5TyUVCAUN-149" value="" style="endArrow=oval;html=1;rounded=0;endFill=1;startArrow=oval;startFill=1;strokeColor=light-dark(#c0c0c0, #535353);" parent="1" edge="1">
          <mxGeometry width="50" height="50" relative="1" as="geometry">
            <mxPoint x="550" y="530" as="sourcePoint" />
            <mxPoint x="580" y="520" as="targetPoint" />
          </mxGeometry>
        </mxCell>
        <mxCell id="3KjaKUkOZBo5TyUVCAUN-150" value="" style="endArrow=oval;html=1;rounded=0;endFill=1;startArrow=oval;startFill=1;strokeColor=light-dark(#c0c0c0, #535353);" parent="1" edge="1">
          <mxGeometry width="50" height="50" relative="1" as="geometry">
            <mxPoint x="550" y="490" as="sourcePoint" />
            <mxPoint x="580" y="500" as="targetPoint" />
          </mxGeometry>
        </mxCell>
        <mxCell id="3KjaKUkOZBo5TyUVCAUN-151" value="" style="endArrow=oval;html=1;rounded=0;endFill=1;startArrow=oval;startFill=1;dashed=1;strokeColor=light-dark(#c0c0c0, #535353);" parent="1" edge="1">
          <mxGeometry width="50" height="50" relative="1" as="geometry">
            <mxPoint x="580" y="480" as="sourcePoint" />
            <mxPoint x="620" y="480" as="targetPoint" />
          </mxGeometry>
        </mxCell>
        <mxCell id="3KjaKUkOZBo5TyUVCAUN-152" value="" style="endArrow=oval;html=1;rounded=0;endFill=1;startArrow=oval;startFill=1;dashed=1;strokeColor=light-dark(#c0c0c0, #535353);" parent="1" edge="1">
          <mxGeometry width="50" height="50" relative="1" as="geometry">
            <mxPoint x="580" y="500" as="sourcePoint" />
            <mxPoint x="620" y="500" as="targetPoint" />
          </mxGeometry>
        </mxCell>
        <mxCell id="3KjaKUkOZBo5TyUVCAUN-153" value="" style="endArrow=oval;html=1;rounded=0;endFill=1;startArrow=oval;startFill=1;dashed=1;strokeColor=light-dark(#c0c0c0, #535353);" parent="1" edge="1">
          <mxGeometry width="50" height="50" relative="1" as="geometry">
            <mxPoint x="580" y="520" as="sourcePoint" />
            <mxPoint x="620" y="520" as="targetPoint" />
          </mxGeometry>
        </mxCell>
        <mxCell id="3KjaKUkOZBo5TyUVCAUN-154" value="" style="endArrow=oval;html=1;rounded=0;endFill=1;startArrow=oval;startFill=1;dashed=1;strokeColor=light-dark(#c0c0c0, #535353);" parent="1" edge="1">
          <mxGeometry width="50" height="50" relative="1" as="geometry">
            <mxPoint x="580" y="540" as="sourcePoint" />
            <mxPoint x="620" y="540" as="targetPoint" />
          </mxGeometry>
        </mxCell>
        <mxCell id="HXkYS8oKJDvhofdAoh5R-1" value="" style="curved=1;endArrow=oval;html=1;rounded=0;endFill=1;startArrow=oval;startFill=1;strokeColor=#808080;dashed=1;dashPattern=1 1;" edge="1" parent="1">
          <mxGeometry width="50" height="50" relative="1" as="geometry">
            <mxPoint x="520" y="510" as="sourcePoint" />
            <mxPoint x="550" y="497.81" as="targetPoint" />
            <Array as="points">
              <mxPoint x="540" y="500" />
            </Array>
          </mxGeometry>
        </mxCell>
        <mxCell id="HXkYS8oKJDvhofdAoh5R-2" value="" style="curved=1;endArrow=oval;html=1;rounded=0;endFill=1;startArrow=oval;startFill=1;strokeColor=#808080;dashed=1;dashPattern=1 1;" edge="1" parent="1">
          <mxGeometry width="50" height="50" relative="1" as="geometry">
            <mxPoint x="550" y="497.81" as="sourcePoint" />
            <mxPoint x="580" y="507.81" as="targetPoint" />
            <Array as="points">
              <mxPoint x="570" y="500" />
            </Array>
          </mxGeometry>
        </mxCell>
        <mxCell id="HXkYS8oKJDvhofdAoh5R-3" value="" style="curved=1;endArrow=oval;html=1;rounded=0;endFill=1;startArrow=oval;startFill=1;strokeColor=#808080;dashed=1;dashPattern=1 1;" edge="1" parent="1">
          <mxGeometry width="50" height="50" relative="1" as="geometry">
            <mxPoint x="580" y="507.81" as="sourcePoint" />
            <mxPoint x="620" y="490" as="targetPoint" />
            <Array as="points">
              <mxPoint x="580" y="507.81" />
              <mxPoint x="600" y="520" />
            </Array>
          </mxGeometry>
        </mxCell>
        <mxCell id="HXkYS8oKJDvhofdAoh5R-24" value="" style="group" vertex="1" connectable="0" parent="1">
          <mxGeometry x="520" y="480" width="100" height="30" as="geometry" />
        </mxCell>
        <mxCell id="HXkYS8oKJDvhofdAoh5R-25" value="" style="endArrow=oval;html=1;rounded=0;endFill=1;startArrow=oval;startFill=1;strokeColor=#000000;" edge="1" parent="HXkYS8oKJDvhofdAoh5R-24">
          <mxGeometry width="50" height="50" relative="1" as="geometry">
            <mxPoint y="30" as="sourcePoint" />
            <mxPoint x="30" y="10" as="targetPoint" />
          </mxGeometry>
        </mxCell>
        <mxCell id="HXkYS8oKJDvhofdAoh5R-26" value="" style="endArrow=oval;html=1;rounded=0;endFill=1;startArrow=oval;startFill=1;strokeColor=#000000;" edge="1" parent="HXkYS8oKJDvhofdAoh5R-24">
          <mxGeometry width="50" height="50" relative="1" as="geometry">
            <mxPoint x="30" y="10" as="sourcePoint" />
            <mxPoint x="60" as="targetPoint" />
          </mxGeometry>
        </mxCell>
        <mxCell id="HXkYS8oKJDvhofdAoh5R-27" value="" style="endArrow=oval;html=1;rounded=0;endFill=1;startArrow=oval;startFill=1;dashed=1;strokeColor=#000000;" edge="1" parent="HXkYS8oKJDvhofdAoh5R-24">
          <mxGeometry width="50" height="50" relative="1" as="geometry">
            <mxPoint x="60" as="sourcePoint" />
            <mxPoint x="100" as="targetPoint" />
          </mxGeometry>
        </mxCell>
        <mxCell id="HXkYS8oKJDvhofdAoh5R-64" value="&lt;div&gt;&lt;font style=&quot;font-size: 13px;&quot;&gt;Simulator 2&lt;/font&gt;&lt;/div&gt;&lt;div&gt;&lt;font style=&quot;font-size: 10px;&quot;&gt;nominal&lt;/font&gt;&lt;br&gt;&lt;/div&gt;" style="rounded=1;whiteSpace=wrap;html=1;dashed=1;" vertex="1" parent="1">
          <mxGeometry x="260" y="310" width="120" height="40" as="geometry" />
        </mxCell>
      </root>
    </mxGraphModel>
  </diagram>
</mxfile>
